<svg width="146" height="59" viewBox="0 0 146 59" fill="none" xmlns="http://www.w3.org/2000/svg">
<g id="logo">
<g id="LOOM 1" clip-path="url(#clip0_136_3)">
<path id="Vector" d="M47.0502 59L4.68875 26.9299C3.24413 25.8385 2.06473 24.3877 1.25046 22.7003C0.436192 21.0129 0.0110474 19.1387 0.0110474 17.2365C0.0110474 15.3343 0.436192 13.4602 1.25046 11.7728C2.06473 10.0854 3.24413 8.63459 4.68875 7.5432L14.9497 -0.188065L57.3112 31.8862C58.7551 32.9782 59.9338 34.4293 60.7475 36.1165C61.5612 37.8038 61.9861 39.6777 61.9861 41.5796C61.9861 43.4814 61.5612 45.3553 60.7475 47.0426C59.9338 48.7299 58.7551 50.1809 57.3112 51.2729L47.0502 59ZM14.9459 4.9689L6.94787 11.0035C6.01813 11.7051 5.259 12.6382 4.73487 13.7236C4.21074 14.8091 3.93707 16.0148 3.93707 17.2386C3.93707 18.4624 4.21074 19.6682 4.73487 20.7536C5.259 21.8391 6.01813 22.7722 6.94787 23.4738L47.0619 53.843L55.0599 47.8127C55.9888 47.1104 56.7472 46.1771 57.2708 45.0918C57.7944 44.0064 58.0678 42.801 58.0678 41.5775C58.0678 40.354 57.7944 39.1486 57.2708 38.0632C56.7472 36.9779 55.9888 36.0446 55.0599 35.3423L14.9459 4.9689Z" fill="#4BC0C8"/>
<path id="Vector_2" d="M14.9072 53.8138L6.92078 47.7667C5.9918 47.0645 5.23341 46.1311 4.70982 45.0458C4.18623 43.9604 3.91286 42.755 3.91286 41.5315C3.91286 40.3081 4.18623 39.1026 4.70982 38.0172C5.23341 36.9319 5.9918 35.9986 6.92078 35.2964L27.5939 19.7085L24.1839 17.1342L4.6849 31.8361C3.24029 32.9275 2.06089 34.3783 1.24662 36.0657C0.432347 37.753 0.00720215 39.6272 0.00720215 41.5294C0.00720215 43.4316 0.432347 45.3058 1.24662 46.9932C2.06089 48.6805 3.24029 50.1314 4.6849 51.2228L14.9188 58.9707L27.5784 49.4174L24.1684 46.8348L14.9072 53.8138Z" fill="#02819B"/>
<path id="Vector_3" d="M57.3306 7.58918L47.0928 -0.158798L34.4216 9.4029L37.8316 11.9856L47.089 5.01488L55.0792 11.062C56.0082 11.7642 56.7666 12.6975 57.2902 13.7829C57.8138 14.8682 58.0871 16.0737 58.0871 17.2971C58.0871 18.5206 57.8138 19.7261 57.2902 20.8114C56.7666 21.8968 56.0082 22.8301 55.0792 23.5323L34.4022 39.1077L37.8122 41.6903L57.3151 26.9759C58.7597 25.8845 59.9391 24.4336 60.7534 22.7463C61.5676 21.0589 61.9928 19.1847 61.9928 17.2825C61.9928 15.3803 61.5676 13.5061 60.7534 11.8188C59.9391 10.1314 58.7597 8.68057 57.3151 7.58918H57.3306Z" fill="#02819B"/>
<path id="Vector_4" d="M23.2326 17.8289L7.12274 29.9853L9.36868 33.4471L25.4786 21.2907L23.2326 17.8289Z" fill="#02819B"/>
<path id="Vector_5" d="M52.9945 25.0744L45.1476 31.0003L47.3913 34.4605L55.5288 28.3131C54.6763 27.2517 53.8354 26.1651 52.9945 25.0744Z" fill="#02819B"/>
</g>
<path id="logo_2" d="M68.52 24.272H74.1V39.284L71.508 39.572C70.596 39.572 69.864 39.308 69.312 38.78C68.784 38.252 68.52 37.532 68.52 36.62V24.272ZM71.508 39.572V35.072H82.812C82.956 35.288 83.088 35.588 83.208 35.972C83.352 36.356 83.424 36.776 83.424 37.232C83.424 38.024 83.244 38.612 82.884 38.996C82.548 39.38 82.08 39.572 81.48 39.572H71.508ZM74.1 31.256H68.52V17.612C68.784 17.564 69.156 17.504 69.636 17.432C70.14 17.36 70.632 17.324 71.112 17.324C72.168 17.324 72.924 17.504 73.38 17.864C73.86 18.224 74.1 18.92 74.1 19.952V31.256ZM103.584 30.86C103.584 32.732 103.2 34.364 102.432 35.756C101.688 37.124 100.632 38.18 99.264 38.924C97.896 39.668 96.288 40.04 94.44 40.04C92.592 40.04 90.972 39.68 89.58 38.96C88.212 38.216 87.144 37.16 86.376 35.792C85.632 34.4 85.26 32.756 85.26 30.86C85.26 28.964 85.644 27.332 86.412 25.964C87.18 24.596 88.248 23.54 89.616 22.796C91.008 22.052 92.616 21.68 94.44 21.68C96.264 21.68 97.86 22.064 99.228 22.832C100.596 23.576 101.664 24.632 102.432 26C103.2 27.368 103.584 28.988 103.584 30.86ZM94.404 25.928C93.3 25.928 92.424 26.36 91.776 27.224C91.128 28.088 90.804 29.3 90.804 30.86C90.804 32.444 91.116 33.668 91.74 34.532C92.388 35.372 93.288 35.792 94.44 35.792C95.568 35.792 96.444 35.36 97.068 34.496C97.716 33.632 98.04 32.42 98.04 30.86C98.04 29.3 97.716 28.088 97.068 27.224C96.42 26.36 95.532 25.928 94.404 25.928ZM123.496 28.304V31.688H118.096V28.484C118.096 27.596 117.832 26.948 117.304 26.54C116.8 26.132 116.128 25.928 115.288 25.928C114.712 25.928 114.172 26 113.668 26.144C113.188 26.288 112.744 26.468 112.336 26.684V31.688H106.9V26.072C106.9 25.472 107.032 24.98 107.296 24.596C107.56 24.188 107.932 23.816 108.412 23.48C109.18 22.952 110.164 22.52 111.364 22.184C112.564 21.848 113.896 21.68 115.36 21.68C117.952 21.68 119.956 22.256 121.372 23.408C122.788 24.536 123.496 26.168 123.496 28.304ZM106.9 30.032H112.336V39.464C112.096 39.536 111.748 39.596 111.292 39.644C110.86 39.716 110.392 39.752 109.888 39.752C108.856 39.752 108.1 39.572 107.62 39.212C107.14 38.852 106.9 38.192 106.9 37.232V30.032ZM118.096 30.032H123.496V39.464C123.256 39.536 122.92 39.596 122.488 39.644C122.056 39.716 121.588 39.752 121.084 39.752C120.028 39.752 119.26 39.572 118.78 39.212C118.324 38.852 118.096 38.192 118.096 37.232V30.032ZM134.806 38.816C133.366 38.816 132.034 38.552 130.81 38.024C129.61 37.472 128.65 36.572 127.93 35.324C127.21 34.052 126.85 32.396 126.85 30.356C126.85 28.436 127.222 26.84 127.966 25.568C128.71 24.272 129.766 23.3 131.134 22.652C132.526 22.004 134.122 21.68 135.922 21.68C137.242 21.68 138.454 21.848 139.558 22.184C140.686 22.52 141.562 22.892 142.186 23.3C142.642 23.588 143.002 23.936 143.266 24.344C143.53 24.752 143.662 25.256 143.662 25.856V37.16H138.442V26.504C138.154 26.336 137.83 26.204 137.47 26.108C137.11 25.988 136.666 25.928 136.138 25.928C134.986 25.928 134.05 26.288 133.33 27.008C132.61 27.704 132.25 28.82 132.25 30.356C132.25 32.012 132.586 33.152 133.258 33.776C133.93 34.4 134.77 34.712 135.778 34.712C136.57 34.712 137.218 34.58 137.722 34.316C138.25 34.028 138.706 33.716 139.09 33.38L139.27 37.7C138.766 38.012 138.142 38.276 137.398 38.492C136.678 38.708 135.814 38.816 134.806 38.816ZM138.514 39.32V35.936H143.662V39.464C143.662 41.12 143.266 42.476 142.474 43.532C141.682 44.612 140.614 45.404 139.27 45.908C137.926 46.412 136.426 46.664 134.77 46.664C133.522 46.664 132.406 46.556 131.422 46.34C130.462 46.124 129.73 45.848 129.226 45.512C128.386 44.96 127.966 44.204 127.966 43.244C127.966 42.74 128.074 42.284 128.29 41.876C128.506 41.468 128.746 41.168 129.01 40.976C129.682 41.36 130.462 41.684 131.35 41.948C132.238 42.236 133.162 42.38 134.122 42.38C135.466 42.38 136.534 42.128 137.326 41.624C138.118 41.144 138.514 40.376 138.514 39.32Z" fill="#EEEEEE"/>
</g>
<defs>
<clipPath id="clip0_136_3">
<rect width="62" height="59" fill="white"/>
</clipPath>
</defs>
</svg>
